<svg xmlns="http://www.w3.org/2000/svg" width="200" height="200" viewBox="0 0 200 200">
  <path id="play" d="M155-735l70-45-70-45Zm25,55a97.375,97.375,0,0,1-39-7.875,100.986,100.986,0,0,1-31.75-21.375A100.986,100.986,0,0,1,87.875-741,97.375,97.375,0,0,1,80-780a97.375,97.375,0,0,1,7.875-39,100.986,100.986,0,0,1,21.375-31.75A100.986,100.986,0,0,1,141-872.125,97.375,97.375,0,0,1,180-880a97.375,97.375,0,0,1,39,7.875,100.986,100.986,0,0,1,31.75,21.375A100.986,100.986,0,0,1,272.125-819,97.375,97.375,0,0,1,280-780a97.375,97.375,0,0,1-7.875,39,100.986,100.986,0,0,1-21.375,31.75A100.986,100.986,0,0,1,219-687.875,97.375,97.375,0,0,1,180-680Zm0-20q33.5,0,56.75-23.25T260-780q0-33.5-23.25-56.75T180-860q-33.5,0-56.75,23.25T100-780q0,33.5,23.25,56.75T180-700ZM180-780Z" transform="translate(-80 880)" fill="#c40c20"/>
</svg>
